<svg width="40" height="40" viewBox="0 0 40 40" fill="none" xmlns="http://www.w3.org/2000/svg">
<g clip-path="url(#clip0_72_3295)">
<path d="M31.6667 20.0005H27.31L28.21 12.7821C28.3673 12.052 28.3599 11.2959 28.1884 10.569C28.0168 9.84207 27.6856 9.16247 27.2185 8.57958C26.7515 7.9967 26.1605 7.52517 25.4885 7.19926C24.8165 6.87335 24.0803 6.70125 23.3334 6.69546H19.385C19.5667 5.41046 19.4567 3.35046 21.275 3.34212H26.6667C27.1087 3.34212 27.5327 3.16653 27.8452 2.85397C28.1578 2.54141 28.3334 2.11748 28.3334 1.67546C28.3334 1.23343 28.1578 0.809505 27.8452 0.496944C27.5327 0.184384 27.1087 0.00878906 26.6667 0.00878906H21.275C20.0569 0.00953894 18.8809 0.454985 17.9679 1.26147C17.0549 2.06796 16.4678 3.18001 16.3167 4.38879L16.0284 6.69546H5.00005C4.26804 6.70331 3.54656 6.87068 2.88586 7.18591C2.22517 7.50115 1.64116 7.95666 1.17453 8.52071C0.707908 9.08475 0.369887 9.74376 0.184027 10.4518C-0.0018331 11.1599 -0.0310614 11.8999 0.0983787 12.6205L2.62005 32.7171C2.87503 34.73 3.85492 36.581 5.37626 37.9234C6.89759 39.2659 8.85607 40.0079 10.885 40.0105L31.6667 39.9905C32.7611 39.9905 33.8447 39.7749 34.8557 39.3561C35.8668 38.9373 36.7854 38.3235 37.5593 37.5497C38.3331 36.7759 38.9469 35.8572 39.3657 34.8462C39.7845 33.8351 40 32.7515 40 31.6571V28.3338C40 27.2394 39.7845 26.1558 39.3657 25.1448C38.9469 24.1337 38.3331 23.2151 37.5593 22.4412C36.7854 21.6674 35.8668 21.0536 34.8557 20.6348C33.8447 20.216 32.7611 20.0005 31.6667 20.0005ZM36.6667 28.3338H16.6667C16.6667 27.0077 17.1935 25.7359 18.1312 24.7983C19.0689 23.8606 20.3406 23.3338 21.6667 23.3338H31.6667C32.9928 23.3338 34.2646 23.8606 35.2022 24.7983C36.1399 25.7359 36.6667 27.0077 36.6667 28.3338ZM23.3334 10.0271C23.5967 10.0285 23.856 10.0917 24.0905 10.2114C24.325 10.3311 24.5282 10.5042 24.6838 10.7166C24.8393 10.929 24.9429 11.175 24.9863 11.4347C25.0296 11.6944 25.0115 11.9607 24.9334 12.2121L24.7884 13.3338H18.555L18.9684 10.0238L23.3334 10.0271ZM3.70671 10.6505C3.86221 10.4567 4.05905 10.3002 4.28282 10.1924C4.50659 10.0845 4.75164 10.0281 5.00005 10.0271H15.6117L15.1967 13.3338H3.54005L3.37338 12.0505C3.31996 11.8071 3.32219 11.5547 3.37991 11.3123C3.43762 11.0699 3.54934 10.8437 3.70671 10.6505ZM5.92671 32.3038L3.96005 16.6671H24.3717L23.9534 20.0005H21.6667C19.4566 20.0005 17.337 20.8784 15.7742 22.4412C14.2114 24.004 13.3334 26.1237 13.3334 28.3338C13.2634 31.0571 13.1667 34.5671 15.06 36.6838H10.885C9.66687 36.683 8.49087 36.2376 7.57789 35.4311C6.66491 34.6246 6.07777 33.5126 5.92671 32.3038ZM31.6667 36.6671H21.6667C20.3406 36.6671 19.0689 36.1403 18.1312 35.2027C17.1935 34.265 16.6667 32.9932 16.6667 31.6671H22.8334C23.4784 31.9771 27.625 35.1855 28.3334 35.0005C29.0267 35.1971 33.2167 31.9621 33.8334 31.6671H36.6667C36.6667 32.9932 36.1399 34.265 35.2022 35.2027C34.2646 36.1403 32.9928 36.6671 31.6667 36.6671Z" fill="#3B0EEE"/>
</g>
<defs>
<clipPath id="clip0_72_3295">
<rect width="40" height="40" fill="white"/>
</clipPath>
</defs>
</svg>
