<svg width="40" height="40" viewBox="0 0 40 40" fill="none" xmlns="http://www.w3.org/2000/svg">
<g clip-path="url(#clip0_72_3293)">
<path d="M26.6667 0H13.3333C8.73833 0 5 3.73833 5 8.33333V31.6667C5 36.2617 8.73833 40 13.3333 40H16.6667C17.5867 40 18.3333 39.2533 18.3333 38.3333V30H21.6667V38.3333C21.6667 39.2533 22.4133 40 23.3333 40H26.6667C31.2617 40 35 36.2617 35 31.6667V8.33333C35 3.73833 31.2617 0 26.6667 0ZM31.6667 31.6667C31.6667 34.4233 29.4233 36.6667 26.6667 36.6667H25V30H26.6667C27.5867 30 28.3333 29.2533 28.3333 28.3333C28.3333 27.4133 27.5867 26.6667 26.6667 26.6667H13.3333C12.4133 26.6667 11.6667 27.4133 11.6667 28.3333C11.6667 29.2533 12.4133 30 13.3333 30H15V36.6667H13.3333C10.5767 36.6667 8.33333 34.4233 8.33333 31.6667V8.33333C8.33333 5.57667 10.5767 3.33333 13.3333 3.33333H26.6667C29.4233 3.33333 31.6667 5.57667 31.6667 8.33333V31.6667ZM18.3333 21.6667C18.3333 22.5867 17.5867 23.3333 16.6667 23.3333H15C14.08 23.3333 13.3333 22.5867 13.3333 21.6667C13.3333 20.7467 14.08 20 15 20H16.6667C17.5867 20 18.3333 20.7467 18.3333 21.6667ZM26.6667 21.6667C26.6667 22.5867 25.92 23.3333 25 23.3333H23.3333C22.4133 23.3333 21.6667 22.5867 21.6667 21.6667C21.6667 20.7467 22.4133 20 23.3333 20H25C25.92 20 26.6667 20.7467 26.6667 21.6667ZM18.3333 8.33333C18.3333 9.25333 17.5867 10 16.6667 10H15C14.08 10 13.3333 9.25333 13.3333 8.33333C13.3333 7.41333 14.08 6.66667 15 6.66667H16.6667C17.5867 6.66667 18.3333 7.41333 18.3333 8.33333ZM26.6667 8.33333C26.6667 9.25333 25.92 10 25 10H23.3333C22.4133 10 21.6667 9.25333 21.6667 8.33333C21.6667 7.41333 22.4133 6.66667 23.3333 6.66667H25C25.92 6.66667 26.6667 7.41333 26.6667 8.33333ZM18.3333 15C18.3333 15.92 17.5867 16.6667 16.6667 16.6667H15C14.08 16.6667 13.3333 15.92 13.3333 15C13.3333 14.08 14.08 13.3333 15 13.3333H16.6667C17.5867 13.3333 18.3333 14.08 18.3333 15ZM26.6667 15C26.6667 15.92 25.92 16.6667 25 16.6667H23.3333C22.4133 16.6667 21.6667 15.92 21.6667 15C21.6667 14.08 22.4133 13.3333 23.3333 13.3333H25C25.92 13.3333 26.6667 14.08 26.6667 15Z" fill="#3B0EEE"/>
</g>
<defs>
<clipPath id="clip0_72_3293">
<rect width="40" height="40" fill="white"/>
</clipPath>
</defs>
</svg>
