<svg width="40" height="40" viewBox="0 0 40 40" fill="none" xmlns="http://www.w3.org/2000/svg">
<g clip-path="url(#clip0_72_3297)">
<path d="M20.0001 20C21.3186 20 22.6076 19.609 23.7039 18.8765C24.8002 18.1439 25.6547 17.1027 26.1593 15.8846C26.6639 14.6664 26.7959 13.3259 26.5387 12.0327C26.2814 10.7395 25.6465 9.55164 24.7141 8.61929C23.7818 7.68694 22.5939 7.052 21.3007 6.79477C20.0075 6.53753 18.667 6.66955 17.4489 7.17414C16.2307 7.67872 15.1895 8.5332 14.457 9.62953C13.7244 10.7259 13.3334 12.0148 13.3334 13.3333C13.3334 15.1014 14.0358 16.7971 15.286 18.0474C16.5363 19.2976 18.232 20 20.0001 20ZM20.0001 10C20.6594 10 21.3038 10.1955 21.852 10.5618C22.4002 10.928 22.8274 11.4486 23.0797 12.0577C23.332 12.6668 23.398 13.337 23.2694 13.9836C23.1408 14.6302 22.8233 15.2242 22.3571 15.6904C21.8909 16.1565 21.297 16.474 20.6504 16.6026C20.0038 16.7312 19.3336 16.6652 18.7245 16.4129C18.1154 16.1606 17.5948 15.7334 17.2285 15.1852C16.8623 14.6371 16.6668 13.9926 16.6668 13.3333C16.6668 12.4493 17.018 11.6014 17.6431 10.9763C18.2682 10.3512 19.116 10 20.0001 10ZM34.4334 15.2617L33.2351 14.8633C33.4507 12.9965 33.2693 11.1052 32.7028 9.31348C32.1362 7.52171 31.1973 5.86994 29.9476 4.46649C28.6979 3.06303 27.1656 1.9396 25.4513 1.16986C23.737 0.400112 21.8793 0.0014458 20.0001 0C18.0964 0.000734949 16.2149 0.40949 14.4825 1.19873C12.75 1.98796 11.2069 3.13934 9.95696 4.57529C8.70706 6.01124 7.77944 7.69841 7.23661 9.52312C6.69378 11.3478 6.54834 13.2677 6.81009 15.1533C5.21515 15.4507 3.7403 16.2032 2.56343 17.32C1.74872 18.0946 1.10104 19.0276 0.660224 20.0617C0.219405 21.0958 -0.00524229 22.2092 9.28451e-05 23.3333V30.125C0.0035955 31.9272 0.589746 33.68 1.67108 35.1218C2.75241 36.5635 4.27095 37.617 6.00009 38.125L10.7834 39.625C11.5869 39.875 12.4236 40.0015 13.2651 40C14.0284 39.999 14.7881 39.8947 15.5234 39.69L25.1568 36.84C26.015 36.6058 26.9202 36.6058 27.7784 36.84L31.7568 38.1733C32.7373 38.412 33.7591 38.4249 34.7454 38.2112C35.7316 37.9975 36.6564 37.5627 37.4502 36.9395C38.2439 36.3164 38.8858 35.5212 39.3275 34.6139C39.7692 33.7065 39.9992 32.7108 40.0001 31.7017V23.12C39.9963 21.3957 39.4593 19.7147 38.4627 18.3076C37.4661 16.9004 36.0587 15.8376 34.4334 15.2617ZM12.9301 6.27C13.8572 5.33915 14.959 4.60054 16.1722 4.09655C17.3855 3.59257 18.6863 3.33313 20.0001 3.33313C21.3139 3.33313 22.6147 3.59257 23.828 4.09655C25.0412 4.60054 26.143 5.33915 27.0701 6.27C28.9404 8.15191 29.9916 10.6964 29.9951 13.3496C29.9985 16.0028 28.9538 18.5499 27.0884 20.4367L21.1668 26.195C20.8577 26.498 20.4421 26.6678 20.0093 26.6678C19.5764 26.6678 19.1608 26.498 18.8518 26.195L12.9301 20.4617C11.0559 18.5757 10.0039 16.0247 10.0039 13.3658C10.0039 10.7069 11.0559 8.15602 12.9301 6.27ZM36.6668 31.7017C36.6678 32.2065 36.5536 32.7048 36.333 33.1589C36.1123 33.6129 35.791 34.0106 35.3934 34.3217C35.0178 34.6237 34.5802 34.8392 34.1118 34.953C33.6435 35.0668 33.1558 35.076 32.6834 34.98L28.7751 33.6667C27.2968 33.242 25.73 33.2327 24.2468 33.64L14.6068 36.4867C13.6806 36.7422 12.7003 36.7254 11.7834 36.4383L6.96009 34.9383C5.91618 34.6365 4.99836 34.0041 4.34442 33.1362C3.69049 32.2683 3.33574 31.2117 3.33343 30.125V23.3333C3.32968 22.6596 3.46377 21.9923 3.72746 21.3723C3.99115 20.7524 4.37886 20.1929 4.86676 19.7283C5.63052 19.0004 6.60346 18.5306 7.64843 18.385C8.32027 20.0503 9.32073 21.5632 10.5901 22.8333L16.5351 28.5883C17.4643 29.4982 18.713 30.0077 20.0134 30.0077C21.3139 30.0077 22.5626 29.4982 23.4918 28.5883L29.4301 22.8167C30.7597 21.4817 31.7897 19.879 32.4518 18.115L33.3468 18.4117C34.3174 18.7595 35.1571 19.3983 35.7512 20.2409C36.3454 21.0835 36.6651 22.089 36.6668 23.12V31.7017Z" fill="#3B0EEE"/>
</g>
<defs>
<clipPath id="clip0_72_3297">
<rect width="40" height="40" fill="white"/>
</clipPath>
</defs>
</svg>
