<svg width="40" height="40" viewBox="0 0 40 40" fill="none" xmlns="http://www.w3.org/2000/svg">
<g clip-path="url(#clip0_72_3299)">
<path d="M25.09 4.16707C25.09 1.8654 26.955 0.000398441 29.2567 0.000398441C31.5583 0.000398441 33.4233 1.8654 33.4233 4.16707C33.4233 6.46873 31.5583 8.33373 29.2567 8.33373C26.955 8.33373 25.09 6.46873 25.09 4.16707ZM13.3333 25.0004H6.66667C4.82833 25.0004 3.33333 23.5054 3.33333 21.6671V12.7704C3.33333 11.2221 4.03167 9.78707 5.25167 8.83373L10.7917 4.49873C12.5617 3.11373 14.9633 2.94373 16.8267 4.0204L19.19 5.56373C19.9617 6.0654 20.9933 5.8504 21.4967 5.07873C22 4.30873 21.7833 3.2754 21.0117 2.77206L18.5717 1.1804C15.4417 -0.626268 11.5817 -0.354601 8.73667 1.87207L3.19667 6.20707C1.165 7.79873 0 10.1904 0 12.7704V21.6671C0 25.3437 2.99 28.3337 6.66667 28.3337H13.3333C14.2533 28.3337 15 27.5871 15 26.6671C15 25.7471 14.2533 25.0004 13.3333 25.0004ZM8.33333 15.0004C7.41333 15.0004 6.66667 15.7471 6.66667 16.6671V18.3337C6.66667 19.2537 7.41333 20.0004 8.33333 20.0004H10C10.92 20.0004 11.6667 19.2537 11.6667 18.3337V16.6671C11.6667 15.7471 10.92 15.0004 10 15.0004H8.33333ZM39.73 23.4104C39.2267 24.1821 38.1983 24.4021 37.4233 23.8971L33.425 21.2904V27.7354L34.515 28.4554C35.92 29.3854 36.7583 30.9437 36.7583 32.6254V38.3337C36.7583 39.2537 36.0117 40.0004 35.0917 40.0004C34.1717 40.0004 33.425 39.2537 33.425 38.3337V32.6254C33.425 32.0654 33.145 31.5454 32.6767 31.2354L25.5933 26.5521C24.22 25.5921 23.4233 24.0604 23.4233 22.4304V16.1004L20.8167 17.8821C20.3633 18.1937 20.09 18.7071 20.09 19.2587V23.3321C20.09 24.2521 19.3433 24.9987 18.4233 24.9987C17.5033 24.9987 16.7567 24.2521 16.7567 23.3321V19.2587C16.7567 17.6054 17.5717 16.0621 18.9367 15.1304L24.3383 11.4387C24.84 10.9837 26.18 10.0271 28.5833 10.0271C30.6283 10.0271 32.69 11.4854 33.3217 13.3621C33.3417 13.4187 34.4867 17.5087 34.4867 17.5087C34.595 17.8971 34.8433 18.2354 35.1817 18.4554L39.245 21.1037C40.015 21.6071 40.2333 22.6387 39.7317 23.4104H39.73ZM30.09 14.2471C29.8467 13.8037 29.14 13.3604 28.5833 13.3604C27.585 13.3604 27.015 13.6154 26.7567 13.7737V22.4287C26.7567 22.9721 27.0233 23.4821 27.4683 23.7954L30.09 25.5287V14.2471ZM25.9567 30.1254C25.1067 29.7787 24.1317 30.1837 23.7817 31.0354L21.0467 37.7021C20.6983 38.5537 21.105 39.5271 21.9567 39.8771C22.1633 39.9621 22.3767 40.0021 22.5883 40.0021C23.245 40.0021 23.8667 39.6121 24.1317 38.9671L26.8667 32.3004C27.215 31.4487 26.8083 30.4754 25.9567 30.1254Z" fill="#3B0EEE"/>
</g>
<defs>
<clipPath id="clip0_72_3299">
<rect width="40" height="40" fill="white"/>
</clipPath>
</defs>
</svg>
